<?xml version="1.0" standalone="no"?>
<!DOCTYPE svg PUBLIC "-//W3C//DTD SVG 20010904//EN"
 "http://www.w3.org/TR/2001/REC-SVG-20010904/DTD/svg10.dtd">
<svg version="1.0" xmlns="http://www.w3.org/2000/svg"
 width="300.000000pt" height="300.000000pt" viewBox="0 0 300.000000 300.000000"
 preserveAspectRatio="xMidYMid meet">

<g transform="translate(0.000000,300.000000) scale(0.100000,-0.100000)"
fill="#000000" stroke="none">
<path d="M1306 2534 c-287 -62 -538 -257 -669 -519 -27 -55 -78 -199 -91 -258
-1 -5 -28 -17 -60 -28 -97 -33 -167 -79 -251 -163 -132 -133 -187 -264 -187
-446 1 -121 17 -193 67 -295 62 -128 175 -238 303 -297 131 -60 101 -58 1010
-59 818 0 834 0 918 21 191 48 337 144 459 300 332 429 133 1083 -383 1255
-60 20 -71 28 -105 76 -152 218 -366 361 -620 415 -88 18 -300 17 -391 -2z
m357 -576 c48 -28 87 -53 87 -57 0 -3 -53 -36 -118 -72 l-117 -66 -3 -437 c-1
-240 -6 -436 -11 -436 -5 0 -62 31 -127 69 l-119 69 -3 291 -2 290 -119 -69
c-66 -39 -122 -70 -125 -70 -3 0 -6 64 -6 143 l0 142 253 147 252 146 35 -20
c19 -11 74 -43 123 -70z m347 -497 l0 -289 -117 -67 c-65 -37 -121 -70 -126
-72 -4 -2 -6 127 -5 287 l3 292 115 68 c63 37 118 68 123 69 4 1 7 -129 7
-288z"/>
</g>
</svg>
